<svg width="279" height="229" viewBox="0 0 279 229" fill="none" xmlns="http://www.w3.org/2000/svg">
<path fill-rule="evenodd" clip-rule="evenodd" d="M148.777 12.0197C148.897 12.1901 149 12.3737 149.084 12.5686C154.044 13.9067 157.695 18.3349 157.695 23.5771C157.695 29.8757 152.424 35 145.945 35C142.563 35 139.51 33.6028 137.365 31.3715H129.219C127.466 31.3715 126.04 29.9849 126.04 28.2806C126.04 27.3018 126.511 26.4283 127.244 25.8616C126.511 25.2949 126.04 24.4215 126.04 23.4426C126.04 22.4638 126.511 21.5904 127.244 21.0237C126.511 20.457 126.04 19.5835 126.04 18.6047C126.04 17.6259 126.511 16.7525 127.244 16.1857C126.511 15.619 126.04 14.7456 126.04 13.7668C126.04 12.0625 127.466 10.6759 129.219 10.6759H131.022C130.67 10.1785 130.463 9.57679 130.463 8.92884C130.463 8.28089 130.67 7.67917 131.022 7.18181H125.487C123.734 7.18181 122.308 5.7952 122.308 4.0909C122.308 2.38661 123.734 1 125.487 1H142.42C144.174 1 145.6 2.38661 145.6 4.0909C145.6 4.73885 145.393 5.34057 145.041 5.83794H150.576C152.329 5.83794 153.755 7.22454 153.755 8.92884C153.755 10.6331 152.329 12.0197 150.576 12.0197H148.777ZM152.373 8.92884C152.373 7.96555 151.567 7.18181 150.576 7.18181H133.643C132.652 7.18181 131.846 7.96555 131.846 8.92884C131.846 9.89213 132.652 10.6759 133.643 10.6759H146.153H150.576C151.567 10.6759 152.373 9.89213 152.373 8.92884ZM123.69 4.0909C123.69 5.05419 124.496 5.83794 125.487 5.83794H142.42C143.411 5.83794 144.217 5.05419 144.217 4.0909C144.217 3.12762 143.411 2.34387 142.42 2.34387H125.487C124.496 2.34387 123.69 3.12762 123.69 4.0909ZM146.153 12.0197H129.219C128.228 12.0197 127.422 12.8035 127.422 13.7668C127.422 14.7301 128.228 15.5138 129.219 15.5138H137.631C139.759 13.4395 142.701 12.1542 145.945 12.1542C146.279 12.1542 146.61 12.1686 146.937 12.1953C146.698 12.0826 146.431 12.0197 146.153 12.0197ZM136.45 16.8577H129.219C128.228 16.8577 127.422 17.6414 127.422 18.6047C127.422 19.5681 128.228 20.3517 129.219 20.3517H134.673C135.059 19.0814 135.665 17.9027 136.45 16.8577ZM134.356 21.6956H129.219C128.228 21.6956 127.422 22.4793 127.422 23.4426C127.422 24.406 128.228 25.1897 129.219 25.1897H134.313C134.236 24.6627 134.196 24.1245 134.196 23.5771C134.196 22.9363 134.251 22.3079 134.356 21.6956ZM127.422 28.2806C127.422 29.2439 128.228 30.0276 129.219 30.0276H136.254C135.511 28.9758 134.944 27.7977 134.596 26.5335H129.219C128.228 26.5335 127.422 27.3172 127.422 28.2806ZM135.578 23.5771C135.578 29.1347 140.229 33.6561 145.945 33.6561C151.662 33.6561 156.313 29.1347 156.313 23.5771C156.313 18.0195 151.662 13.4981 145.945 13.4981C140.229 13.4981 135.578 18.0195 135.578 23.5771ZM144.182 21.2802C144.182 22.0967 144.972 22.7609 145.942 22.7609C147.795 22.7609 149.302 24.1228 149.302 25.7969C149.302 27.2219 148.209 28.42 146.742 28.7452V29.0811C146.742 29.5105 146.384 29.8588 145.942 29.8588C145.5 29.8588 145.142 29.5105 145.142 29.0811V28.7452C143.675 28.42 142.583 27.2219 142.583 25.7969C142.583 25.3675 142.941 25.0193 143.383 25.0193C143.824 25.0193 144.182 25.3675 144.182 25.7969C144.182 26.6134 144.972 27.2776 145.942 27.2776C146.912 27.2776 147.702 26.6134 147.702 25.7969C147.702 24.9804 146.912 24.3161 145.942 24.3161C144.09 24.3161 142.583 22.9542 142.583 21.2802C142.583 19.8553 143.675 18.6571 145.142 18.3319V17.9275C145.142 17.4981 145.5 17.1499 145.942 17.1499C146.384 17.1499 146.742 17.4981 146.742 17.9275V18.3319C148.209 18.6571 149.302 19.8553 149.302 21.2802C149.302 21.7096 148.943 22.0579 148.502 22.0579C148.06 22.0579 147.702 21.7096 147.702 21.2802C147.702 20.4637 146.912 19.7995 145.942 19.7995C144.972 19.7995 144.182 20.4637 144.182 21.2802Z" fill="#FF872C"/>
<path d="M149.084 12.5686L148.854 12.6677L148.902 12.7785L149.019 12.8099L149.084 12.5686ZM148.777 12.0197V11.7697H148.295L148.572 12.1637L148.777 12.0197ZM137.365 31.3715L137.545 31.1982L137.471 31.1215H137.365V31.3715ZM127.244 25.8616L127.397 26.0594L127.652 25.8616L127.397 25.6639L127.244 25.8616ZM127.244 21.0237L127.397 21.2214L127.652 21.0237L127.397 20.8259L127.244 21.0237ZM127.244 16.1857L127.397 16.3835L127.652 16.1857L127.397 15.988L127.244 16.1857ZM131.022 10.6759V10.9259H131.505L131.226 10.5315L131.022 10.6759ZM131.022 7.18181L131.226 7.32619L131.505 6.93181H131.022V7.18181ZM145.041 5.83794L144.837 5.69355L144.558 6.08794H145.041V5.83794ZM137.631 15.5138V15.7638H137.733L137.805 15.6928L137.631 15.5138ZM146.937 12.1953L146.917 12.4444L147.043 11.9691L146.937 12.1953ZM136.45 16.8577L136.65 17.0078L136.95 16.6077H136.45V16.8577ZM134.673 20.3517V20.6017H134.859L134.913 20.4243L134.673 20.3517ZM134.356 21.6956L134.602 21.7378L134.652 21.4456H134.356V21.6956ZM134.313 25.1897V25.4397H134.602L134.561 25.1536L134.313 25.1897ZM136.254 30.0276V30.2776H136.737L136.458 29.8834L136.254 30.0276ZM134.596 26.5335L134.837 26.4671L134.786 26.2835H134.596V26.5335ZM146.742 28.7452L146.688 28.5011L146.492 28.5445V28.7452H146.742ZM145.142 28.7452H145.392V28.5445L145.196 28.5011L145.142 28.7452ZM145.142 18.3319L145.196 18.576L145.392 18.5326V18.3319H145.142ZM146.742 18.3319H146.492V18.5326L146.688 18.576L146.742 18.3319ZM149.313 12.4695C149.222 12.2589 149.111 12.0602 148.981 11.8758L148.572 12.1637C148.682 12.3199 148.777 12.4886 148.854 12.6677L149.313 12.4695ZM157.945 23.5771C157.945 18.2145 154.211 13.6928 149.149 12.3272L149.019 12.8099C153.877 14.1206 157.445 18.4552 157.445 23.5771H157.945ZM145.945 35.25C152.556 35.25 157.945 30.0204 157.945 23.5771H157.445C157.445 29.731 152.293 34.75 145.945 34.75V35.25ZM137.184 31.5448C139.376 33.8237 142.493 35.25 145.945 35.25V34.75C142.633 34.75 139.645 33.3819 137.545 31.1982L137.184 31.5448ZM129.219 31.6215H137.365V31.1215H129.219V31.6215ZM125.79 28.2806C125.79 30.1295 127.335 31.6215 129.219 31.6215V31.1215C127.598 31.1215 126.29 29.8402 126.29 28.2806H125.79ZM127.091 25.6639C126.301 26.2746 125.79 27.2192 125.79 28.2806H126.29C126.29 27.3844 126.721 26.582 127.397 26.0594L127.091 25.6639ZM125.79 23.4426C125.79 24.5041 126.301 25.4486 127.091 26.0594L127.397 25.6639C126.721 25.1412 126.29 24.3388 126.29 23.4426H125.79ZM127.091 20.8259C126.301 21.4367 125.79 22.3812 125.79 23.4426H126.29C126.29 22.5465 126.721 21.7441 127.397 21.2214L127.091 20.8259ZM125.79 18.6047C125.79 19.6661 126.301 20.6107 127.091 21.2214L127.397 20.8259C126.721 20.3033 126.29 19.5009 126.29 18.6047H125.79ZM127.091 15.988C126.301 16.5987 125.79 17.5433 125.79 18.6047H126.29C126.29 17.7085 126.721 16.9062 127.397 16.3835L127.091 15.988ZM125.79 13.7668C125.79 14.8282 126.301 15.7727 127.091 16.3835L127.397 15.988C126.721 15.4653 126.29 14.663 126.29 13.7668H125.79ZM129.219 10.4259C127.335 10.4259 125.79 11.9178 125.79 13.7668H126.29C126.29 12.2071 127.598 10.9259 129.219 10.9259V10.4259ZM131.022 10.4259H129.219V10.9259H131.022V10.4259ZM130.213 8.92884C130.213 9.63092 130.437 10.2827 130.818 10.8203L131.226 10.5315C130.902 10.0743 130.713 9.52265 130.713 8.92884H130.213ZM130.818 7.03742C130.437 7.57498 130.213 8.22674 130.213 8.92884H130.713C130.713 8.33504 130.902 7.78337 131.226 7.32619L130.818 7.03742ZM125.487 7.43181H131.022V6.93181H125.487V7.43181ZM122.058 4.0909C122.058 5.93987 123.603 7.43181 125.487 7.43181V6.93181C123.865 6.93181 122.558 5.65053 122.558 4.0909H122.058ZM125.487 0.75C123.603 0.75 122.058 2.24193 122.058 4.0909H122.558C122.558 2.53128 123.865 1.25 125.487 1.25V0.75ZM142.42 0.75H125.487V1.25H142.42V0.75ZM145.85 4.0909C145.85 2.24193 144.305 0.75 142.42 0.75V1.25C144.042 1.25 145.35 2.53128 145.35 4.0909H145.85ZM145.245 5.98232C145.626 5.44476 145.85 4.793 145.85 4.0909H145.35C145.35 4.6847 145.161 5.23637 144.837 5.69355L145.245 5.98232ZM150.576 5.58794H145.041V6.08794H150.576V5.58794ZM154.005 8.92884C154.005 7.07987 152.461 5.58794 150.576 5.58794V6.08794C152.198 6.08794 153.505 7.36921 153.505 8.92884H154.005ZM150.576 12.2697C152.461 12.2697 154.005 10.7778 154.005 8.92884H153.505C153.505 10.4885 152.198 11.7697 150.576 11.7697V12.2697ZM148.777 12.2697H150.576V11.7697H148.777V12.2697ZM150.576 7.43181C151.436 7.43181 152.123 8.11022 152.123 8.92884H152.623C152.623 7.82089 151.698 6.93181 150.576 6.93181V7.43181ZM133.643 7.43181H150.576V6.93181H133.643V7.43181ZM132.096 8.92884C132.096 8.11022 132.783 7.43181 133.643 7.43181V6.93181C132.52 6.93181 131.596 7.82089 131.596 8.92884H132.096ZM133.643 10.4259C132.783 10.4259 132.096 9.74746 132.096 8.92884H131.596C131.596 10.0368 132.52 10.9259 133.643 10.9259V10.4259ZM146.153 10.4259H133.643V10.9259H146.153V10.4259ZM150.576 10.4259H146.153V10.9259H150.576V10.4259ZM152.123 8.92884C152.123 9.74746 151.436 10.4259 150.576 10.4259V10.9259C151.698 10.9259 152.623 10.0368 152.623 8.92884H152.123ZM125.487 5.58794C124.627 5.58794 123.94 4.90952 123.94 4.0909H123.44C123.44 5.19886 124.365 6.08794 125.487 6.08794V5.58794ZM142.42 5.58794H125.487V6.08794H142.42V5.58794ZM143.967 4.0909C143.967 4.90952 143.28 5.58794 142.42 5.58794V6.08794C143.543 6.08794 144.467 5.19886 144.467 4.0909H143.967ZM142.42 2.59387C143.28 2.59387 143.967 3.27228 143.967 4.0909H144.467C144.467 2.98295 143.543 2.09387 142.42 2.09387V2.59387ZM125.487 2.59387H142.42V2.09387H125.487V2.59387ZM123.94 4.0909C123.94 3.27228 124.627 2.59387 125.487 2.59387V2.09387C124.365 2.09387 123.44 2.98295 123.44 4.0909H123.94ZM129.219 12.2697H146.153V11.7697H129.219V12.2697ZM127.672 13.7668C127.672 12.9482 128.36 12.2697 129.219 12.2697V11.7697C128.097 11.7697 127.172 12.6588 127.172 13.7668H127.672ZM129.219 15.2638C128.36 15.2638 127.672 14.5854 127.672 13.7668H127.172C127.172 14.8747 128.097 15.7638 129.219 15.7638V15.2638ZM137.631 15.2638H129.219V15.7638H137.631V15.2638ZM145.945 11.9042C142.634 11.9042 139.63 13.2163 137.456 15.3348L137.805 15.6928C139.888 13.6628 142.768 12.4042 145.945 12.4042V11.9042ZM146.957 11.9461C146.624 11.9189 146.287 11.9042 145.945 11.9042V12.4042C146.272 12.4042 146.596 12.4183 146.917 12.4444L146.957 11.9461ZM146.153 12.2697C146.393 12.2697 146.624 12.3241 146.83 12.4214L147.043 11.9691C146.772 11.8412 146.469 11.7697 146.153 11.7697V12.2697ZM129.219 17.1077H136.45V16.6077H129.219V17.1077ZM127.672 18.6047C127.672 17.7861 128.36 17.1077 129.219 17.1077V16.6077C128.097 16.6077 127.172 17.4968 127.172 18.6047H127.672ZM129.219 20.1017C128.36 20.1017 127.672 19.4234 127.672 18.6047H127.172C127.172 19.7127 128.097 20.6017 129.219 20.6017V20.1017ZM134.673 20.1017H129.219V20.6017H134.673V20.1017ZM136.25 16.7076C135.448 17.7753 134.828 18.9802 134.434 20.2792L134.913 20.4243C135.289 19.1827 135.882 18.0301 136.65 17.0078L136.25 16.7076ZM129.219 21.9456H134.356V21.4456H129.219V21.9456ZM127.672 23.4426C127.672 22.624 128.36 21.9456 129.219 21.9456V21.4456C128.097 21.4456 127.172 22.3346 127.172 23.4426H127.672ZM129.219 24.9397C128.36 24.9397 127.672 24.2613 127.672 23.4426H127.172C127.172 24.5507 128.097 25.4397 129.219 25.4397V24.9397ZM134.313 24.9397H129.219V25.4397H134.313V24.9397ZM133.946 23.5771C133.946 24.1369 133.987 24.6872 134.066 25.2258L134.561 25.1536C134.486 24.6382 134.446 24.112 134.446 23.5771H133.946ZM134.11 21.6534C134.002 22.2794 133.946 22.9218 133.946 23.5771H134.446C134.446 22.9507 134.5 22.3365 134.602 21.7378L134.11 21.6534ZM129.219 29.7776C128.36 29.7776 127.672 29.0993 127.672 28.2806H127.172C127.172 29.3886 128.097 30.2776 129.219 30.2776V29.7776ZM136.254 29.7776H129.219V30.2776H136.254V29.7776ZM134.355 26.6C134.711 27.8927 135.29 29.0971 136.05 30.1718L136.458 29.8834C135.731 28.8545 135.177 27.7026 134.837 26.4671L134.355 26.6ZM129.219 26.7835H134.596V26.2835H129.219V26.7835ZM127.672 28.2806C127.672 27.4619 128.36 26.7835 129.219 26.7835V26.2835C128.097 26.2835 127.172 27.1726 127.172 28.2806H127.672ZM145.945 33.4061C140.36 33.4061 135.828 28.99 135.828 23.5771H135.328C135.328 29.2794 140.097 33.9061 145.945 33.9061V33.4061ZM156.063 23.5771C156.063 28.99 151.531 33.4061 145.945 33.4061V33.9061C151.793 33.9061 156.563 29.2794 156.563 23.5771H156.063ZM145.945 13.7481C151.531 13.7481 156.063 18.1642 156.063 23.5771H156.563C156.563 17.8748 151.793 13.2481 145.945 13.2481V13.7481ZM135.828 23.5771C135.828 18.1642 140.36 13.7481 145.945 13.7481V13.2481C140.097 13.2481 135.328 17.8748 135.328 23.5771H135.828ZM145.942 22.5109C145.068 22.5109 144.432 21.9199 144.432 21.2802H143.932C143.932 22.2734 144.876 23.0109 145.942 23.0109V22.5109ZM149.552 25.7969C149.552 23.9615 147.908 22.5109 145.942 22.5109V23.0109C147.681 23.0109 149.052 24.2841 149.052 25.7969H149.552ZM146.796 28.9893C148.358 28.6431 149.552 27.358 149.552 25.7969H149.052C149.052 27.0857 148.06 28.197 146.688 28.5011L146.796 28.9893ZM146.992 29.0811V28.7452H146.492V29.0811H146.992ZM145.942 30.1088C146.515 30.1088 146.992 29.6552 146.992 29.0811H146.492C146.492 29.3659 146.252 29.6088 145.942 29.6088V30.1088ZM144.892 29.0811C144.892 29.6552 145.369 30.1088 145.942 30.1088V29.6088C145.632 29.6088 145.392 29.3659 145.392 29.0811H144.892ZM144.892 28.7452V29.0811H145.392V28.7452H144.892ZM142.333 25.7969C142.333 27.358 143.526 28.6431 145.088 28.9893L145.196 28.5011C143.824 28.197 142.833 27.0857 142.833 25.7969H142.333ZM143.383 24.7693C142.81 24.7693 142.333 25.2228 142.333 25.7969H142.833C142.833 25.5121 143.072 25.2693 143.383 25.2693V24.7693ZM144.432 25.7969C144.432 25.2228 143.956 24.7693 143.383 24.7693V25.2693C143.693 25.2693 143.932 25.5121 143.932 25.7969H144.432ZM145.942 27.0276C145.068 27.0276 144.432 26.4366 144.432 25.7969H143.932C143.932 26.7901 144.876 27.5276 145.942 27.5276V27.0276ZM147.452 25.7969C147.452 26.4366 146.817 27.0276 145.942 27.0276V27.5276C147.008 27.5276 147.952 26.7901 147.952 25.7969H147.452ZM145.942 24.5661C146.817 24.5661 147.452 25.1571 147.452 25.7969H147.952C147.952 24.8036 147.008 24.0661 145.942 24.0661V24.5661ZM142.333 21.2802C142.333 23.1155 143.976 24.5661 145.942 24.5661V24.0661C144.203 24.0661 142.833 22.7929 142.833 21.2802H142.333ZM145.088 18.0878C143.526 18.4341 142.333 19.7191 142.333 21.2802H142.833C142.833 19.9915 143.824 18.8802 145.196 18.576L145.088 18.0878ZM144.892 17.9275V18.3319H145.392V17.9275H144.892ZM145.942 16.8999C145.369 16.8999 144.892 17.3534 144.892 17.9275H145.392C145.392 17.6427 145.632 17.3999 145.942 17.3999V16.8999ZM146.992 17.9275C146.992 17.3534 146.515 16.8999 145.942 16.8999V17.3999C146.252 17.3999 146.492 17.6427 146.492 17.9275H146.992ZM146.992 18.3319V17.9275H146.492V18.3319H146.992ZM149.552 21.2802C149.552 19.7191 148.358 18.4341 146.796 18.0878L146.688 18.576C148.06 18.8802 149.052 19.9915 149.052 21.2802H149.552ZM148.502 22.3079C149.075 22.3079 149.552 21.8543 149.552 21.2802H149.052C149.052 21.565 148.812 21.8079 148.502 21.8079V22.3079ZM147.452 21.2802C147.452 21.8543 147.929 22.3079 148.502 22.3079V21.8079C148.191 21.8079 147.952 21.565 147.952 21.2802H147.452ZM145.942 20.0495C146.817 20.0495 147.452 20.6405 147.452 21.2802H147.952C147.952 20.287 147.008 19.5495 145.942 19.5495V20.0495ZM144.432 21.2802C144.432 20.6405 145.068 20.0495 145.942 20.0495V19.5495C144.876 19.5495 143.932 20.287 143.932 21.2802H144.432Z" fill="#FF872C"/>
<path d="M80 57.6626C80 61.1925 82.4267 63.5804 85.5836 63.5804C87.7311 63.5804 89.2558 62.4799 89.9645 61.2548V63.6427C89.9645 66.0721 88.3968 67.3595 86.3137 67.3595C84.381 67.3595 82.9851 66.4251 82.5556 65.0547H80.6228C81.0093 67.4841 83.2213 68.9999 86.3137 68.9999C89.7712 68.9999 91.9402 66.7781 91.9402 63.6427V52.0147H89.9645V54.0912C89.2773 52.8661 87.7311 51.8279 85.5836 51.8279C82.4267 51.8279 80 54.1119 80 57.6626ZM89.9645 57.6834C89.9645 60.362 88.1177 61.9193 85.9701 61.9193C83.8226 61.9193 81.9972 60.3412 81.9972 57.6626C81.9972 54.984 83.8226 53.4682 85.9701 53.4682C88.1177 53.4682 89.9645 55.0463 89.9645 57.6834Z" fill="white"/>
<path d="M106.41 57.6834C106.41 54.0912 103.811 51.8279 100.461 51.8279C97.1326 51.8279 94.5126 54.0912 94.5126 57.6834C94.5126 61.2964 97.0467 63.5804 100.375 63.5804C103.725 63.5804 106.41 61.2964 106.41 57.6834ZM96.5098 57.6834C96.5098 54.8179 98.3781 53.4682 100.44 53.4682C102.458 53.4682 104.413 54.8179 104.413 57.6834C104.413 60.5696 102.415 61.9193 100.375 61.9193C98.3352 61.9193 96.5098 60.5696 96.5098 57.6834Z" fill="white"/>
<path d="M110.103 63.3937H112.573V53.8837H114.763V51.9526H112.573V51.1428C112.573 49.8346 113.088 49.3363 114.592 49.3363V47.3637C111.499 47.3637 110.103 48.5057 110.103 51.1428V51.9526H108.707V53.8837H110.103V63.3937Z" fill="white"/>
<path d="M116.933 63.3937H119.381V51.9526H116.933V63.3937ZM118.179 50.4368C119.038 50.4368 119.725 49.7723 119.725 48.921C119.725 48.0697 119.038 47.4052 118.179 47.4052C117.298 47.4052 116.611 48.0697 116.611 48.921C116.611 49.7723 117.298 50.4368 118.179 50.4368Z" fill="white"/>
<path d="M130.992 63.3937H133.419V56.6453C133.419 53.4476 131.336 51.7657 128.566 51.7657C127.148 51.7657 125.838 52.3264 125.044 53.2607V51.9526H122.595V63.3937H125.044V56.9983C125.044 54.9011 126.225 53.8214 128.029 53.8214C129.811 53.8214 130.992 54.9011 130.992 56.9983V63.3937Z" fill="white"/>
<path d="M135.726 57.6212C135.726 61.1512 138.195 63.5806 141.266 63.5806C143.242 63.5806 144.659 62.667 145.411 61.691V63.3937H147.881V51.9526H145.411V53.6137C144.681 52.6793 143.306 51.7657 141.309 51.7657C138.195 51.7657 135.726 54.0913 135.726 57.6212ZM145.411 57.6628C145.411 60.1337 143.672 61.5249 141.825 61.5249C139.999 61.5249 138.238 60.0922 138.238 57.6212C138.238 55.1503 139.999 53.8214 141.825 53.8214C143.672 53.8214 145.411 55.2126 145.411 57.6628Z" fill="white"/>
<path d="M159.493 63.3937H161.92V56.6453C161.92 53.4476 159.837 51.7657 157.066 51.7657C155.649 51.7657 154.339 52.3264 153.544 53.2607V51.9526H151.096V63.3937H153.544V56.9983C153.544 54.9011 154.726 53.8214 156.53 53.8214C158.312 53.8214 159.493 54.9011 159.493 56.9983V63.3937Z" fill="white"/>
<path d="M164.227 57.6628C164.227 61.255 166.632 63.5806 170.025 63.5806C172.924 63.5806 174.814 62.0233 175.48 59.7807H172.838C172.387 60.9643 171.485 61.5872 170.025 61.5872C168.049 61.5872 166.739 60.1752 166.739 57.6628C166.739 55.1711 168.049 53.7591 170.025 53.7591C171.485 53.7591 172.43 54.4651 172.838 55.5656H175.48C174.814 53.1569 172.924 51.7657 170.025 51.7657C166.632 51.7657 164.227 54.0913 164.227 57.6628Z" fill="white"/>
<path d="M182.902 53.7591C184.727 53.7591 186.166 54.8804 186.209 56.6453H179.659C179.917 54.8388 181.248 53.7591 182.902 53.7591ZM188.442 59.9884H185.801C185.35 60.8812 184.512 61.5872 183.009 61.5872C181.205 61.5872 179.809 60.4452 179.637 58.5556H188.679C188.743 58.1611 188.764 57.7874 188.764 57.3928C188.764 54.029 186.381 51.7657 183.009 51.7657C179.509 51.7657 177.103 54.0705 177.103 57.6628C177.103 61.255 179.616 63.5806 183.009 63.5806C185.908 63.5806 187.777 61.9817 188.442 59.9884Z" fill="white"/>
<path d="M200 60.196C199.871 56.0639 193.192 57.3513 193.192 55.0465C193.192 54.2782 193.88 53.7591 195.19 53.7591C196.521 53.7591 197.316 54.4443 197.401 55.441H199.85C199.721 53.1569 197.96 51.7657 195.275 51.7657C192.484 51.7657 190.723 53.24 190.723 55.0672C190.723 59.2616 197.595 57.9742 197.595 60.2168C197.595 61.0058 196.843 61.5872 195.426 61.5872C194.073 61.5872 193.149 60.8189 193.063 59.8845H190.529C190.637 61.961 192.634 63.5806 195.469 63.5806C198.261 63.5806 200 62.1271 200 60.196Z" fill="white"/>
<path d="M35.7565 129.53C35.7565 127.49 36.2265 125.66 37.1665 124.04C38.1265 122.42 39.4165 121.16 41.0365 120.26C42.6765 119.34 44.4665 118.88 46.4065 118.88C48.6265 118.88 50.5965 119.43 52.3165 120.53C54.0565 121.61 55.3165 123.15 56.0965 125.15H51.9865C51.4465 124.05 50.6965 123.23 49.7365 122.69C48.7765 122.15 47.6665 121.88 46.4065 121.88C45.0265 121.88 43.7965 122.19 42.7165 122.81C41.6365 123.43 40.7865 124.32 40.1665 125.48C39.5665 126.64 39.2665 127.99 39.2665 129.53C39.2665 131.07 39.5665 132.42 40.1665 133.58C40.7865 134.74 41.6365 135.64 42.7165 136.28C43.7965 136.9 45.0265 137.21 46.4065 137.21C47.6665 137.21 48.7765 136.94 49.7365 136.4C50.6965 135.86 51.4465 135.04 51.9865 133.94H56.0965C55.3165 135.94 54.0565 137.48 52.3165 138.56C50.5965 139.64 48.6265 140.18 46.4065 140.18C44.4465 140.18 42.6565 139.73 41.0365 138.83C39.4165 137.91 38.1265 136.64 37.1665 135.02C36.2265 133.4 35.7565 131.57 35.7565 129.53ZM67.2696 140.27C65.7096 140.27 64.2996 139.92 63.0396 139.22C61.7796 138.5 60.7896 137.5 60.0696 136.22C59.3496 134.92 58.9896 133.42 58.9896 131.72C58.9896 130.04 59.3596 128.55 60.0996 127.25C60.8396 125.95 61.8496 124.95 63.1296 124.25C64.4096 123.55 65.8396 123.2 67.4196 123.2C68.9996 123.2 70.4296 123.55 71.7096 124.25C72.9896 124.95 73.9996 125.95 74.7396 127.25C75.4796 128.55 75.8496 130.04 75.8496 131.72C75.8496 133.4 75.4696 134.89 74.7096 136.19C73.9496 137.49 72.9096 138.5 71.5896 139.22C70.2896 139.92 68.8496 140.27 67.2696 140.27ZM67.2696 137.3C68.1496 137.3 68.9696 137.09 69.7296 136.67C70.5096 136.25 71.1396 135.62 71.6196 134.78C72.0996 133.94 72.3396 132.92 72.3396 131.72C72.3396 130.52 72.1096 129.51 71.6496 128.69C71.1896 127.85 70.5796 127.22 69.8196 126.8C69.0596 126.38 68.2396 126.17 67.3596 126.17C66.4796 126.17 65.6596 126.38 64.8996 126.8C64.1596 127.22 63.5696 127.85 63.1296 128.69C62.6896 129.51 62.4696 130.52 62.4696 131.72C62.4696 133.5 62.9196 134.88 63.8196 135.86C64.7396 136.82 65.8896 137.3 67.2696 137.3ZM87.5705 123.2C88.8705 123.2 90.0305 123.47 91.0505 124.01C92.0905 124.55 92.9005 125.35 93.4805 126.41C94.0605 127.47 94.3505 128.75 94.3505 130.25V140H90.9605V130.76C90.9605 129.28 90.5905 128.15 89.8505 127.37C89.1105 126.57 88.1005 126.17 86.8205 126.17C85.5405 126.17 84.5205 126.57 83.7605 127.37C83.0205 128.15 82.6505 129.28 82.6505 130.76V140H79.2305V123.47H82.6505V125.36C83.2105 124.68 83.9205 124.15 84.7805 123.77C85.6605 123.39 86.5905 123.2 87.5705 123.2ZM102.703 126.26V135.41C102.703 136.03 102.843 136.48 103.123 136.76C103.423 137.02 103.923 137.15 104.623 137.15H106.723V140H104.023C102.483 140 101.303 139.64 100.483 138.92C99.6629 138.2 99.2529 137.03 99.2529 135.41V126.26H97.3029V123.47H99.2529V119.36H102.703V123.47H106.723V126.26H102.703ZM113.295 125.87C113.795 125.03 114.455 124.38 115.275 123.92C116.115 123.44 117.105 123.2 118.245 123.2V126.74H117.375C116.035 126.74 115.015 127.08 114.315 127.76C113.635 128.44 113.295 129.62 113.295 131.3V140H109.875V123.47H113.295V125.87ZM128.559 140.27C126.999 140.27 125.589 139.92 124.329 139.22C123.069 138.5 122.079 137.5 121.359 136.22C120.639 134.92 120.279 133.42 120.279 131.72C120.279 130.04 120.649 128.55 121.389 127.25C122.129 125.95 123.139 124.95 124.419 124.25C125.699 123.55 127.129 123.2 128.709 123.2C130.289 123.2 131.719 123.55 132.999 124.25C134.279 124.95 135.289 125.95 136.029 127.25C136.769 128.55 137.139 130.04 137.139 131.72C137.139 133.4 136.759 134.89 135.999 136.19C135.239 137.49 134.199 138.5 132.879 139.22C131.579 139.92 130.139 140.27 128.559 140.27ZM128.559 137.3C129.439 137.3 130.259 137.09 131.019 136.67C131.799 136.25 132.429 135.62 132.909 134.78C133.389 133.94 133.629 132.92 133.629 131.72C133.629 130.52 133.399 129.51 132.939 128.69C132.479 127.85 131.869 127.22 131.109 126.8C130.349 126.38 129.529 126.17 128.649 126.17C127.769 126.17 126.949 126.38 126.189 126.8C125.449 127.22 124.859 127.85 124.419 128.69C123.979 129.51 123.759 130.52 123.759 131.72C123.759 133.5 124.209 134.88 125.109 135.86C126.029 136.82 127.179 137.3 128.559 137.3ZM143.94 117.8V140H140.52V117.8H143.94ZM163.58 131.33C163.58 131.95 163.54 132.51 163.46 133.01H150.83C150.93 134.33 151.42 135.39 152.3 136.19C153.18 136.99 154.26 137.39 155.54 137.39C157.38 137.39 158.68 136.62 159.44 135.08H163.13C162.63 136.6 161.72 137.85 160.4 138.83C159.1 139.79 157.48 140.27 155.54 140.27C153.96 140.27 152.54 139.92 151.28 139.22C150.04 138.5 149.06 137.5 148.34 136.22C147.64 134.92 147.29 133.42 147.29 131.72C147.29 130.02 147.63 128.53 148.31 127.25C149.01 125.95 149.98 124.95 151.22 124.25C152.48 123.55 153.92 123.2 155.54 123.2C157.1 123.2 158.49 123.54 159.71 124.22C160.93 124.9 161.88 125.86 162.56 127.1C163.24 128.32 163.58 129.73 163.58 131.33ZM160.01 130.25C159.99 128.99 159.54 127.98 158.66 127.22C157.78 126.46 156.69 126.08 155.39 126.08C154.21 126.08 153.2 126.46 152.36 127.22C151.52 127.96 151.02 128.97 150.86 130.25H160.01ZM180.738 140.27C179.438 140.27 178.268 140.04 177.228 139.58C176.208 139.1 175.398 138.46 174.798 137.66C174.198 136.84 173.878 135.93 173.838 134.93H177.378C177.438 135.63 177.768 136.22 178.368 136.7C178.988 137.16 179.758 137.39 180.678 137.39C181.638 137.39 182.378 137.21 182.898 136.85C183.438 136.47 183.708 135.99 183.708 135.41C183.708 134.79 183.408 134.33 182.808 134.03C182.228 133.73 181.298 133.4 180.018 133.04C178.778 132.7 177.768 132.37 176.988 132.05C176.208 131.73 175.528 131.24 174.948 130.58C174.388 129.92 174.108 129.05 174.108 127.97C174.108 127.09 174.368 126.29 174.888 125.57C175.408 124.83 176.148 124.25 177.108 123.83C178.088 123.41 179.208 123.2 180.468 123.2C182.348 123.2 183.858 123.68 184.998 124.64C186.158 125.58 186.778 126.87 186.858 128.51H183.438C183.378 127.77 183.078 127.18 182.538 126.74C181.998 126.3 181.268 126.08 180.348 126.08C179.448 126.08 178.758 126.25 178.278 126.59C177.798 126.93 177.558 127.38 177.558 127.94C177.558 128.38 177.718 128.75 178.038 129.05C178.358 129.35 178.748 129.59 179.208 129.77C179.668 129.93 180.348 130.14 181.248 130.4C182.448 130.72 183.428 131.05 184.188 131.39C184.968 131.71 185.638 132.19 186.198 132.83C186.758 133.47 187.048 134.32 187.068 135.38C187.068 136.32 186.808 137.16 186.288 137.9C185.768 138.64 185.028 139.22 184.068 139.64C183.128 140.06 182.018 140.27 180.738 140.27ZM205.734 123.47V140H202.314V138.05C201.774 138.73 201.064 139.27 200.184 139.67C199.324 140.05 198.404 140.24 197.424 140.24C196.124 140.24 194.954 139.97 193.914 139.43C192.894 138.89 192.084 138.09 191.484 137.03C190.904 135.97 190.614 134.69 190.614 133.19V123.47H194.004V132.68C194.004 134.16 194.374 135.3 195.114 136.1C195.854 136.88 196.864 137.27 198.144 137.27C199.424 137.27 200.434 136.88 201.174 136.1C201.934 135.3 202.314 134.16 202.314 132.68V123.47H205.734ZM209.106 131.66C209.106 130 209.446 128.53 210.126 127.25C210.826 125.97 211.766 124.98 212.946 124.28C214.146 123.56 215.466 123.2 216.906 123.2C218.206 123.2 219.336 123.46 220.296 123.98C221.276 124.48 222.056 125.11 222.636 125.87V123.47H226.086V140H222.636V137.54C222.056 138.32 221.266 138.97 220.266 139.49C219.266 140.01 218.126 140.27 216.846 140.27C215.426 140.27 214.126 139.91 212.946 139.19C211.766 138.45 210.826 137.43 210.126 136.13C209.446 134.81 209.106 133.32 209.106 131.66ZM222.636 131.72C222.636 130.58 222.396 129.59 221.916 128.75C221.456 127.91 220.846 127.27 220.086 126.83C219.326 126.39 218.506 126.17 217.626 126.17C216.746 126.17 215.926 126.39 215.166 126.83C214.406 127.25 213.786 127.88 213.306 128.72C212.846 129.54 212.616 130.52 212.616 131.66C212.616 132.8 212.846 133.8 213.306 134.66C213.786 135.52 214.406 136.18 215.166 136.64C215.946 137.08 216.766 137.3 217.626 137.3C218.506 137.3 219.326 137.08 220.086 136.64C220.846 136.2 221.456 135.56 221.916 134.72C222.396 133.86 222.636 132.86 222.636 131.72ZM236.578 140.27C235.278 140.27 234.108 140.04 233.068 139.58C232.048 139.1 231.238 138.46 230.638 137.66C230.038 136.84 229.718 135.93 229.678 134.93H233.218C233.278 135.63 233.608 136.22 234.208 136.7C234.828 137.16 235.598 137.39 236.518 137.39C237.478 137.39 238.218 137.21 238.738 136.85C239.278 136.47 239.548 135.99 239.548 135.41C239.548 134.79 239.248 134.33 238.648 134.03C238.068 133.73 237.138 133.4 235.858 133.04C234.618 132.7 233.608 132.37 232.828 132.05C232.048 131.73 231.368 131.24 230.788 130.58C230.228 129.92 229.948 129.05 229.948 127.97C229.948 127.09 230.208 126.29 230.728 125.57C231.248 124.83 231.988 124.25 232.948 123.83C233.928 123.41 235.048 123.2 236.308 123.2C238.188 123.2 239.698 123.68 240.838 124.64C241.998 125.58 242.618 126.87 242.698 128.51H239.278C239.218 127.77 238.918 127.18 238.378 126.74C237.838 126.3 237.108 126.08 236.188 126.08C235.288 126.08 234.598 126.25 234.118 126.59C233.638 126.93 233.398 127.38 233.398 127.94C233.398 128.38 233.558 128.75 233.878 129.05C234.198 129.35 234.588 129.59 235.048 129.77C235.508 129.93 236.188 130.14 237.088 130.4C238.288 130.72 239.268 131.05 240.028 131.39C240.808 131.71 241.478 132.19 242.038 132.83C242.598 133.47 242.888 134.32 242.908 135.38C242.908 136.32 242.648 137.16 242.128 137.9C241.608 138.64 240.868 139.22 239.908 139.64C238.968 140.06 237.858 140.27 236.578 140.27ZM9.65168 166.26H6.59168V180H3.14168V166.26H1.19168V163.47H3.14168V162.3C3.14168 160.4 3.64168 159.02 4.64168 158.16C5.66168 157.28 7.25168 156.84 9.41168 156.84V159.69C8.37168 159.69 7.64168 159.89 7.22168 160.29C6.80168 160.67 6.59168 161.34 6.59168 162.3V163.47H9.65168V166.26ZM14.4226 161.28C13.8026 161.28 13.2826 161.07 12.8626 160.65C12.4426 160.23 12.2326 159.71 12.2326 159.09C12.2326 158.47 12.4426 157.95 12.8626 157.53C13.2826 157.11 13.8026 156.9 14.4226 156.9C15.0226 156.9 15.5326 157.11 15.9526 157.53C16.3726 157.95 16.5826 158.47 16.5826 159.09C16.5826 159.71 16.3726 160.23 15.9526 160.65C15.5326 161.07 15.0226 161.28 14.4226 161.28ZM16.1026 163.47V180H12.6826V163.47H16.1026ZM28.9328 163.2C30.2328 163.2 31.3928 163.47 32.4128 164.01C33.4528 164.55 34.2628 165.35 34.8428 166.41C35.4228 167.47 35.7128 168.75 35.7128 170.25V180H32.3228V170.76C32.3228 169.28 31.9528 168.15 31.2128 167.37C30.4728 166.57 29.4628 166.17 28.1828 166.17C26.9028 166.17 25.8828 166.57 25.1228 167.37C24.3828 168.15 24.0128 169.28 24.0128 170.76V180H20.5928V163.47H24.0128V165.36C24.5728 164.68 25.2828 164.15 26.1428 163.77C27.0228 163.39 27.9528 163.2 28.9328 163.2ZM38.9352 171.66C38.9352 170 39.2752 168.53 39.9552 167.25C40.6552 165.97 41.5952 164.98 42.7752 164.28C43.9752 163.56 45.2952 163.2 46.7352 163.2C48.0352 163.2 49.1652 163.46 50.1252 163.98C51.1052 164.48 51.8852 165.11 52.4652 165.87V163.47H55.9152V180H52.4652V177.54C51.8852 178.32 51.0952 178.97 50.0952 179.49C49.0952 180.01 47.9552 180.27 46.6752 180.27C45.2552 180.27 43.9552 179.91 42.7752 179.19C41.5952 178.45 40.6552 177.43 39.9552 176.13C39.2752 174.81 38.9352 173.32 38.9352 171.66ZM52.4652 171.72C52.4652 170.58 52.2252 169.59 51.7452 168.75C51.2852 167.91 50.6752 167.27 49.9152 166.83C49.1552 166.39 48.3352 166.17 47.4552 166.17C46.5752 166.17 45.7552 166.39 44.9952 166.83C44.2352 167.25 43.6152 167.88 43.1352 168.72C42.6752 169.54 42.4452 170.52 42.4452 171.66C42.4452 172.8 42.6752 173.8 43.1352 174.66C43.6152 175.52 44.2352 176.18 44.9952 176.64C45.7752 177.08 46.5952 177.3 47.4552 177.3C48.3352 177.3 49.1552 177.08 49.9152 176.64C50.6752 176.2 51.2852 175.56 51.7452 174.72C52.2252 173.86 52.4652 172.86 52.4652 171.72ZM68.7472 163.2C70.0472 163.2 71.2072 163.47 72.2272 164.01C73.2672 164.55 74.0772 165.35 74.6572 166.41C75.2372 167.47 75.5272 168.75 75.5272 170.25V180H72.1372V170.76C72.1372 169.28 71.7672 168.15 71.0272 167.37C70.2872 166.57 69.2772 166.17 67.9972 166.17C66.7172 166.17 65.6972 166.57 64.9372 167.37C64.1972 168.15 63.8272 169.28 63.8272 170.76V180H60.4072V163.47H63.8272V165.36C64.3872 164.68 65.0972 164.15 65.9572 163.77C66.8372 163.39 67.7672 163.2 68.7472 163.2ZM86.8496 177.39C88.8296 177.39 90.1396 176.52 90.7796 174.78H94.4696C94.0296 176.3 93.2396 177.55 92.0996 178.53C90.9796 179.49 89.5696 180.05 87.8696 180.21V181.44C89.0296 181.44 89.9696 181.71 90.6896 182.25C91.4096 182.81 91.7696 183.59 91.7696 184.59C91.7696 185.59 91.4096 186.38 90.6896 186.96C89.9696 187.56 89.0596 187.86 87.9596 187.86H83.9996V185.7H87.2696C87.8296 185.7 88.2496 185.62 88.5296 185.46C88.8096 185.3 88.9496 185.01 88.9496 184.59C88.9496 184.17 88.8096 183.88 88.5296 183.72C88.2496 183.56 87.8296 183.48 87.2696 183.48H85.6196V180.18C84.2596 180.02 83.0596 179.57 82.0196 178.83C80.9796 178.07 80.1696 177.09 79.5896 175.89C79.0296 174.67 78.7496 173.28 78.7496 171.72C78.7496 170.02 79.0896 168.53 79.7696 167.25C80.4696 165.95 81.4296 164.95 82.6496 164.25C83.8696 163.55 85.2696 163.2 86.8496 163.2C88.8496 163.2 90.4996 163.68 91.7996 164.64C93.1196 165.58 94.0096 166.93 94.4696 168.69H90.7796C90.4796 167.87 89.9996 167.23 89.3396 166.77C88.6796 166.31 87.8496 166.08 86.8496 166.08C85.4496 166.08 84.3296 166.58 83.4896 167.58C82.6696 168.56 82.2596 169.94 82.2596 171.72C82.2596 173.5 82.6696 174.89 83.4896 175.89C84.3296 176.89 85.4496 177.39 86.8496 177.39ZM96.7379 171.66C96.7379 170 97.0779 168.53 97.7579 167.25C98.4579 165.97 99.3979 164.98 100.578 164.28C101.778 163.56 103.098 163.2 104.538 163.2C105.838 163.2 106.968 163.46 107.928 163.98C108.908 164.48 109.688 165.11 110.268 165.87V163.47H113.718V180H110.268V177.54C109.688 178.32 108.898 178.97 107.898 179.49C106.898 180.01 105.758 180.27 104.478 180.27C103.058 180.27 101.758 179.91 100.578 179.19C99.3979 178.45 98.4579 177.43 97.7579 176.13C97.0779 174.81 96.7379 173.32 96.7379 171.66ZM110.268 171.72C110.268 170.58 110.028 169.59 109.548 168.75C109.088 167.91 108.478 167.27 107.718 166.83C106.958 166.39 106.138 166.17 105.258 166.17C104.378 166.17 103.558 166.39 102.798 166.83C102.038 167.25 101.418 167.88 100.938 168.72C100.478 169.54 100.248 170.52 100.248 171.66C100.248 172.8 100.478 173.8 100.938 174.66C101.418 175.52 102.038 176.18 102.798 176.64C103.578 177.08 104.398 177.3 105.258 177.3C106.138 177.3 106.958 177.08 107.718 176.64C108.478 176.2 109.088 175.56 109.548 174.72C110.028 173.86 110.268 172.86 110.268 171.72ZM124.21 180.27C122.91 180.27 121.74 180.04 120.7 179.58C119.68 179.1 118.87 178.46 118.27 177.66C117.67 176.84 117.35 175.93 117.31 174.93H120.85C120.91 175.63 121.24 176.22 121.84 176.7C122.46 177.16 123.23 177.39 124.15 177.39C125.11 177.39 125.85 177.21 126.37 176.85C126.91 176.47 127.18 175.99 127.18 175.41C127.18 174.79 126.88 174.33 126.28 174.03C125.7 173.73 124.77 173.4 123.49 173.04C122.25 172.7 121.24 172.37 120.46 172.05C119.68 171.73 119 171.24 118.42 170.58C117.86 169.92 117.58 169.05 117.58 167.97C117.58 167.09 117.84 166.29 118.36 165.57C118.88 164.83 119.62 164.25 120.58 163.83C121.56 163.41 122.68 163.2 123.94 163.2C125.82 163.2 127.33 163.68 128.47 164.64C129.63 165.58 130.25 166.87 130.33 168.51H126.91C126.85 167.77 126.55 167.18 126.01 166.74C125.47 166.3 124.74 166.08 123.82 166.08C122.92 166.08 122.23 166.25 121.75 166.59C121.27 166.93 121.03 167.38 121.03 167.94C121.03 168.38 121.19 168.75 121.51 169.05C121.83 169.35 122.22 169.59 122.68 169.77C123.14 169.93 123.82 170.14 124.72 170.4C125.92 170.72 126.9 171.05 127.66 171.39C128.44 171.71 129.11 172.19 129.67 172.83C130.23 173.47 130.52 174.32 130.54 175.38C130.54 176.32 130.28 177.16 129.76 177.9C129.24 178.64 128.5 179.22 127.54 179.64C126.6 180.06 125.49 180.27 124.21 180.27ZM140.888 171.66C140.888 170 141.228 168.53 141.908 167.25C142.608 165.97 143.548 164.98 144.728 164.28C145.928 163.56 147.258 163.2 148.718 163.2C149.798 163.2 150.858 163.44 151.898 163.92C152.958 164.38 153.798 165 154.418 165.78V157.8H157.868V180H154.418V177.51C153.858 178.31 153.078 178.97 152.078 179.49C151.098 180.01 149.968 180.27 148.688 180.27C147.248 180.27 145.928 179.91 144.728 179.19C143.548 178.45 142.608 177.43 141.908 176.13C141.228 174.81 140.888 173.32 140.888 171.66ZM154.418 171.72C154.418 170.58 154.178 169.59 153.698 168.75C153.238 167.91 152.628 167.27 151.868 166.83C151.108 166.39 150.288 166.17 149.408 166.17C148.528 166.17 147.708 166.39 146.948 166.83C146.188 167.25 145.568 167.88 145.088 168.72C144.628 169.54 144.398 170.52 144.398 171.66C144.398 172.8 144.628 173.8 145.088 174.66C145.568 175.52 146.188 176.18 146.948 176.64C147.728 177.08 148.548 177.3 149.408 177.3C150.288 177.3 151.108 177.08 151.868 176.64C152.628 176.2 153.238 175.56 153.698 174.72C154.178 173.86 154.418 172.86 154.418 171.72ZM177.51 171.33C177.51 171.95 177.47 172.51 177.39 173.01H164.76C164.86 174.33 165.35 175.39 166.23 176.19C167.11 176.99 168.19 177.39 169.47 177.39C171.31 177.39 172.61 176.62 173.37 175.08H177.06C176.56 176.6 175.65 177.85 174.33 178.83C173.03 179.79 171.41 180.27 169.47 180.27C167.89 180.27 166.47 179.92 165.21 179.22C163.97 178.5 162.99 177.5 162.27 176.22C161.57 174.92 161.22 173.42 161.22 171.72C161.22 170.02 161.56 168.53 162.24 167.25C162.94 165.95 163.91 164.95 165.15 164.25C166.41 163.55 167.85 163.2 169.47 163.2C171.03 163.2 172.42 163.54 173.64 164.22C174.86 164.9 175.81 165.86 176.49 167.1C177.17 168.32 177.51 169.73 177.51 171.33ZM173.94 170.25C173.92 168.99 173.47 167.98 172.59 167.22C171.71 166.46 170.62 166.08 169.32 166.08C168.14 166.08 167.13 166.46 166.29 167.22C165.45 167.96 164.95 168.97 164.79 170.25H173.94ZM195.599 166.26H192.539V180H189.089V166.26H187.139V163.47H189.089V162.3C189.089 160.4 189.589 159.02 190.589 158.16C191.609 157.28 193.199 156.84 195.359 156.84V159.69C194.319 159.69 193.589 159.89 193.169 160.29C192.749 160.67 192.539 161.34 192.539 162.3V163.47H195.599V166.26ZM205.8 180.27C204.24 180.27 202.83 179.92 201.57 179.22C200.31 178.5 199.32 177.5 198.6 176.22C197.88 174.92 197.52 173.42 197.52 171.72C197.52 170.04 197.89 168.55 198.63 167.25C199.37 165.95 200.38 164.95 201.66 164.25C202.94 163.55 204.37 163.2 205.95 163.2C207.53 163.2 208.96 163.55 210.24 164.25C211.52 164.95 212.53 165.95 213.27 167.25C214.01 168.55 214.38 170.04 214.38 171.72C214.38 173.4 214 174.89 213.24 176.19C212.48 177.49 211.44 178.5 210.12 179.22C208.82 179.92 207.38 180.27 205.8 180.27ZM205.8 177.3C206.68 177.3 207.5 177.09 208.26 176.67C209.04 176.25 209.67 175.62 210.15 174.78C210.63 173.94 210.87 172.92 210.87 171.72C210.87 170.52 210.64 169.51 210.18 168.69C209.72 167.85 209.11 167.22 208.35 166.8C207.59 166.38 206.77 166.17 205.89 166.17C205.01 166.17 204.19 166.38 203.43 166.8C202.69 167.22 202.1 167.85 201.66 168.69C201.22 169.51 201 170.52 201 171.72C201 173.5 201.45 174.88 202.35 175.86C203.27 176.82 204.42 177.3 205.8 177.3ZM221.181 165.87C221.681 165.03 222.341 164.38 223.161 163.92C224.001 163.44 224.991 163.2 226.131 163.2V166.74H225.261C223.921 166.74 222.901 167.08 222.201 167.76C221.521 168.44 221.181 169.62 221.181 171.3V180H217.761V163.47H221.181V165.87ZM249.284 163.2C250.584 163.2 251.744 163.47 252.764 164.01C253.804 164.55 254.614 165.35 255.194 166.41C255.794 167.47 256.094 168.75 256.094 170.25V180H252.704V170.76C252.704 169.28 252.334 168.15 251.594 167.37C250.854 166.57 249.844 166.17 248.564 166.17C247.284 166.17 246.264 166.57 245.504 167.37C244.764 168.15 244.394 169.28 244.394 170.76V180H241.004V170.76C241.004 169.28 240.634 168.15 239.894 167.37C239.154 166.57 238.144 166.17 236.864 166.17C235.584 166.17 234.564 166.57 233.804 167.37C233.064 168.15 232.694 169.28 232.694 170.76V180H229.274V163.47H232.694V165.36C233.254 164.68 233.964 164.15 234.824 163.77C235.684 163.39 236.604 163.2 237.584 163.2C238.904 163.2 240.084 163.48 241.124 164.04C242.164 164.6 242.964 165.41 243.524 166.47C244.024 165.47 244.804 164.68 245.864 164.1C246.924 163.5 248.064 163.2 249.284 163.2ZM259.306 171.66C259.306 170 259.646 168.53 260.326 167.25C261.026 165.97 261.966 164.98 263.146 164.28C264.346 163.56 265.666 163.2 267.106 163.2C268.406 163.2 269.536 163.46 270.496 163.98C271.476 164.48 272.256 165.11 272.836 165.87V163.47H276.286V180H272.836V177.54C272.256 178.32 271.466 178.97 270.466 179.49C269.466 180.01 268.326 180.27 267.046 180.27C265.626 180.27 264.326 179.91 263.146 179.19C261.966 178.45 261.026 177.43 260.326 176.13C259.646 174.81 259.306 173.32 259.306 171.66ZM272.836 171.72C272.836 170.58 272.596 169.59 272.116 168.75C271.656 167.91 271.046 167.27 270.286 166.83C269.526 166.39 268.706 166.17 267.826 166.17C266.946 166.17 266.126 166.39 265.366 166.83C264.606 167.25 263.986 167.88 263.506 168.72C263.046 169.54 262.816 170.52 262.816 171.66C262.816 172.8 263.046 173.8 263.506 174.66C263.986 175.52 264.606 176.18 265.366 176.64C266.146 177.08 266.966 177.3 267.826 177.3C268.706 177.3 269.526 177.08 270.286 176.64C271.046 176.2 271.656 175.56 272.116 174.72C272.596 173.86 272.836 172.86 272.836 171.72ZM54.4895 203.2C55.7895 203.2 56.9495 203.47 57.9695 204.01C59.0095 204.55 59.8195 205.35 60.3995 206.41C60.9995 207.47 61.2995 208.75 61.2995 210.25V220H57.9095V210.76C57.9095 209.28 57.5395 208.15 56.7995 207.37C56.0595 206.57 55.0495 206.17 53.7695 206.17C52.4895 206.17 51.4695 206.57 50.7095 207.37C49.9695 208.15 49.5995 209.28 49.5995 210.76V220H46.2095V210.76C46.2095 209.28 45.8395 208.15 45.0995 207.37C44.3595 206.57 43.3495 206.17 42.0695 206.17C40.7895 206.17 39.7695 206.57 39.0095 207.37C38.2695 208.15 37.8995 209.28 37.8995 210.76V220H34.4795V203.47H37.8995V205.36C38.4595 204.68 39.1695 204.15 40.0295 203.77C40.8895 203.39 41.8095 203.2 42.7895 203.2C44.1095 203.2 45.2895 203.48 46.3295 204.04C47.3695 204.6 48.1695 205.41 48.7295 206.47C49.2295 205.47 50.0095 204.68 51.0695 204.1C52.1295 203.5 53.2695 203.2 54.4895 203.2ZM80.6214 203.47V220H77.2014V218.05C76.6614 218.73 75.9514 219.27 75.0714 219.67C74.2114 220.05 73.2914 220.24 72.3114 220.24C71.0114 220.24 69.8414 219.97 68.8014 219.43C67.7814 218.89 66.9714 218.09 66.3714 217.03C65.7914 215.97 65.5014 214.69 65.5014 213.19V203.47H68.8914V212.68C68.8914 214.16 69.2614 215.3 70.0014 216.1C70.7414 216.88 71.7514 217.27 73.0314 217.27C74.3114 217.27 75.3214 216.88 76.0614 216.1C76.8214 215.3 77.2014 214.16 77.2014 212.68V203.47H80.6214ZM86.8738 201.28C86.2538 201.28 85.7338 201.07 85.3138 200.65C84.8938 200.23 84.6838 199.71 84.6838 199.09C84.6838 198.47 84.8938 197.95 85.3138 197.53C85.7338 197.11 86.2538 196.9 86.8738 196.9C87.4738 196.9 87.9838 197.11 88.4038 197.53C88.8238 197.95 89.0338 198.47 89.0338 199.09C89.0338 199.71 88.8238 200.23 88.4038 200.65C87.9838 201.07 87.4738 201.28 86.8738 201.28ZM88.5538 203.47V220H85.1338V203.47H88.5538ZM97.0339 206.26V215.41C97.0339 216.03 97.1739 216.48 97.4539 216.76C97.7539 217.02 98.2539 217.15 98.9539 217.15H101.054V220H98.3539C96.8139 220 95.6339 219.64 94.8139 218.92C93.9939 218.2 93.5839 217.03 93.5839 215.41V206.26H91.6339V203.47H93.5839V199.36H97.0339V203.47H101.054V206.26H97.0339ZM111.376 220.27C109.816 220.27 108.406 219.92 107.146 219.22C105.886 218.5 104.896 217.5 104.176 216.22C103.456 214.92 103.096 213.42 103.096 211.72C103.096 210.04 103.466 208.55 104.206 207.25C104.946 205.95 105.956 204.95 107.236 204.25C108.516 203.55 109.946 203.2 111.526 203.2C113.106 203.2 114.536 203.55 115.816 204.25C117.096 204.95 118.106 205.95 118.846 207.25C119.586 208.55 119.956 210.04 119.956 211.72C119.956 213.4 119.576 214.89 118.816 216.19C118.056 217.49 117.016 218.5 115.696 219.22C114.396 219.92 112.956 220.27 111.376 220.27ZM111.376 217.3C112.256 217.3 113.076 217.09 113.836 216.67C114.616 216.25 115.246 215.62 115.726 214.78C116.206 213.94 116.446 212.92 116.446 211.72C116.446 210.52 116.216 209.51 115.756 208.69C115.296 207.85 114.686 207.22 113.926 206.8C113.166 206.38 112.346 206.17 111.466 206.17C110.586 206.17 109.766 206.38 109.006 206.8C108.266 207.22 107.676 207.85 107.236 208.69C106.796 209.51 106.576 210.52 106.576 211.72C106.576 213.5 107.026 214.88 107.926 215.86C108.846 216.82 109.996 217.3 111.376 217.3ZM137.13 220.27C135.83 220.27 134.66 220.04 133.62 219.58C132.6 219.1 131.79 218.46 131.19 217.66C130.59 216.84 130.27 215.93 130.23 214.93H133.77C133.83 215.63 134.16 216.22 134.76 216.7C135.38 217.16 136.15 217.39 137.07 217.39C138.03 217.39 138.77 217.21 139.29 216.85C139.83 216.47 140.1 215.99 140.1 215.41C140.1 214.79 139.8 214.33 139.2 214.03C138.62 213.73 137.69 213.4 136.41 213.04C135.17 212.7 134.16 212.37 133.38 212.05C132.6 211.73 131.92 211.24 131.34 210.58C130.78 209.92 130.5 209.05 130.5 207.97C130.5 207.09 130.76 206.29 131.28 205.57C131.8 204.83 132.54 204.25 133.5 203.83C134.48 203.41 135.6 203.2 136.86 203.2C138.74 203.2 140.25 203.68 141.39 204.64C142.55 205.58 143.17 206.87 143.25 208.51H139.83C139.77 207.77 139.47 207.18 138.93 206.74C138.39 206.3 137.66 206.08 136.74 206.08C135.84 206.08 135.15 206.25 134.67 206.59C134.19 206.93 133.95 207.38 133.95 207.94C133.95 208.38 134.11 208.75 134.43 209.05C134.75 209.35 135.14 209.59 135.6 209.77C136.06 209.93 136.74 210.14 137.64 210.4C138.84 210.72 139.82 211.05 140.58 211.39C141.36 211.71 142.03 212.19 142.59 212.83C143.15 213.47 143.44 214.32 143.46 215.38C143.46 216.32 143.2 217.16 142.68 217.9C142.16 218.64 141.42 219.22 140.46 219.64C139.52 220.06 138.41 220.27 137.13 220.27ZM148.895 201.28C148.275 201.28 147.755 201.07 147.335 200.65C146.915 200.23 146.705 199.71 146.705 199.09C146.705 198.47 146.915 197.95 147.335 197.53C147.755 197.11 148.275 196.9 148.895 196.9C149.495 196.9 150.005 197.11 150.425 197.53C150.845 197.95 151.055 198.47 151.055 199.09C151.055 199.71 150.845 200.23 150.425 200.65C150.005 201.07 149.495 201.28 148.895 201.28ZM150.575 203.47V220H147.155V203.47H150.575ZM175.075 203.2C176.375 203.2 177.535 203.47 178.555 204.01C179.595 204.55 180.405 205.35 180.985 206.41C181.585 207.47 181.885 208.75 181.885 210.25V220H178.495V210.76C178.495 209.28 178.125 208.15 177.385 207.37C176.645 206.57 175.635 206.17 174.355 206.17C173.075 206.17 172.055 206.57 171.295 207.37C170.555 208.15 170.185 209.28 170.185 210.76V220H166.795V210.76C166.795 209.28 166.425 208.15 165.685 207.37C164.945 206.57 163.935 206.17 162.655 206.17C161.375 206.17 160.355 206.57 159.595 207.37C158.855 208.15 158.485 209.28 158.485 210.76V220H155.065V203.47H158.485V205.36C159.045 204.68 159.755 204.15 160.615 203.77C161.475 203.39 162.395 203.2 163.375 203.2C164.695 203.2 165.875 203.48 166.915 204.04C167.955 204.6 168.755 205.41 169.315 206.47C169.815 205.47 170.595 204.68 171.655 204.1C172.715 203.5 173.855 203.2 175.075 203.2ZM189.657 205.9C190.237 205.14 191.027 204.5 192.027 203.98C193.027 203.46 194.157 203.2 195.417 203.2C196.857 203.2 198.167 203.56 199.347 204.28C200.547 204.98 201.487 205.97 202.167 207.25C202.847 208.53 203.187 210 203.187 211.66C203.187 213.32 202.847 214.81 202.167 216.13C201.487 217.43 200.547 218.45 199.347 219.19C198.167 219.91 196.857 220.27 195.417 220.27C194.157 220.27 193.037 220.02 192.057 219.52C191.077 219 190.277 218.36 189.657 217.6V227.86H186.237V203.47H189.657V205.9ZM199.707 211.66C199.707 210.52 199.467 209.54 198.987 208.72C198.527 207.88 197.907 207.25 197.127 206.83C196.367 206.39 195.547 206.17 194.667 206.17C193.807 206.17 192.987 206.39 192.207 206.83C191.447 207.27 190.827 207.91 190.347 208.75C189.887 209.59 189.657 210.58 189.657 211.72C189.657 212.86 189.887 213.86 190.347 214.72C190.827 215.56 191.447 216.2 192.207 216.64C192.987 217.08 193.807 217.3 194.667 217.3C195.547 217.3 196.367 217.08 197.127 216.64C197.907 216.18 198.527 215.52 198.987 214.66C199.467 213.8 199.707 212.8 199.707 211.66ZM209.989 197.8V220H206.569V197.8H209.989ZM229.629 211.33C229.629 211.95 229.589 212.51 229.509 213.01H216.879C216.979 214.33 217.469 215.39 218.349 216.19C219.229 216.99 220.309 217.39 221.589 217.39C223.429 217.39 224.729 216.62 225.489 215.08H229.179C228.679 216.6 227.769 217.85 226.449 218.83C225.149 219.79 223.529 220.27 221.589 220.27C220.009 220.27 218.589 219.92 217.329 219.22C216.089 218.5 215.109 217.5 214.389 216.22C213.689 214.92 213.339 213.42 213.339 211.72C213.339 210.02 213.679 208.53 214.359 207.25C215.059 205.95 216.029 204.95 217.269 204.25C218.529 203.55 219.969 203.2 221.589 203.2C223.149 203.2 224.539 203.54 225.759 204.22C226.979 204.9 227.929 205.86 228.609 207.1C229.289 208.32 229.629 209.73 229.629 211.33ZM226.059 210.25C226.039 208.99 225.589 207.98 224.709 207.22C223.829 206.46 222.739 206.08 221.439 206.08C220.259 206.08 219.249 206.46 218.409 207.22C217.569 207.96 217.069 208.97 216.909 210.25H226.059ZM238.995 220.27C237.695 220.27 236.525 220.04 235.485 219.58C234.465 219.1 233.655 218.46 233.055 217.66C232.455 216.84 232.135 215.93 232.095 214.93H235.635C235.695 215.63 236.025 216.22 236.625 216.7C237.245 217.16 238.015 217.39 238.935 217.39C239.895 217.39 240.635 217.21 241.155 216.85C241.695 216.47 241.965 215.99 241.965 215.41C241.965 214.79 241.665 214.33 241.065 214.03C240.485 213.73 239.555 213.4 238.275 213.04C237.035 212.7 236.025 212.37 235.245 212.05C234.465 211.73 233.785 211.24 233.205 210.58C232.645 209.92 232.365 209.05 232.365 207.97C232.365 207.09 232.625 206.29 233.145 205.57C233.665 204.83 234.405 204.25 235.365 203.83C236.345 203.41 237.465 203.2 238.725 203.2C240.605 203.2 242.115 203.68 243.255 204.64C244.415 205.58 245.035 206.87 245.115 208.51H241.695C241.635 207.77 241.335 207.18 240.795 206.74C240.255 206.3 239.525 206.08 238.605 206.08C237.705 206.08 237.015 206.25 236.535 206.59C236.055 206.93 235.815 207.38 235.815 207.94C235.815 208.38 235.975 208.75 236.295 209.05C236.615 209.35 237.005 209.59 237.465 209.77C237.925 209.93 238.605 210.14 239.505 210.4C240.705 210.72 241.685 211.05 242.445 211.39C243.225 211.71 243.895 212.19 244.455 212.83C245.015 213.47 245.305 214.32 245.325 215.38C245.325 216.32 245.065 217.16 244.545 217.9C244.025 218.64 243.285 219.22 242.325 219.64C241.385 220.06 240.275 220.27 238.995 220.27Z" fill="white"/>
</svg>
